<svg xmlns="http://www.w3.org/2000/svg" height="20" viewBox="0 -960 960 960" width="20"><path d="M480.038-166.654q70.577 0 120.135-49.404 49.558-49.404 49.558-119.98 0-70.577-49.483-120.135-49.483-49.558-120.173-49.558t-120.056 49.483q-49.365 49.483-49.365 120.173t49.404 120.056q49.404 49.365 119.98 49.365ZM367.923-500.77q20.962-13.038 43.811-21.275 22.849-8.237 49.958-11.724l-90.346-198.424H262.769L367.923-500.77Zm224.154 0 105.154-231.423H588.039l-82.424 177.808 10.382 22.883q21.657 4.117 40.311 12.091 18.654 7.973 35.769 18.641ZM307.654-210.038q1.916-3.737 5.112-9.186 3.195-5.45 8.195-11.325-18.846-26.644-27.8-58.674-8.954-32.029-6.276-66.201 0-30 10.192-56.922 10.192-26.923 29.038-48.462-18.539-5.884-33.231.986t-19.308 16.978q-44.999 10.109-65.884 48.631-20.884 38.522-6.961 77.252 0 45 30.962 75.961 30.961 30.962 75.961 30.962Zm345.077 0q58.154 5.884 99.577-32.791 41.423-38.676 41.423-93.25 0-54.573-41.423-93.17t-99.577-33.097q-5 0-9.423.577t-9.038.961q20.754 25.624 32.569 57.514 11.815 31.889 11.815 67.227 0 35.337-11.815 67.251t-32.569 57.239q4.615.769 9.038 1.154 4.423.385 9.423.385Zm-172.826 72.307q-41.367 0-76.683-14.384-35.317-14.385-63.345-41.692-12.569 3.538-25.924 5.807-13.354 2.269-26.844 2.269-61.768 0-105.573-43.773Q137.731-273.277 137.731-335q0-65.106 49.192-110.573 49.192-45.466 116.385-38.966 11.461 0 21.653 1.154 10.193 1.154 20.885 2.692L220.307-761.116h171.578L480-570.501l88.5-190.615h171.193l-124.77 277.654q8.923-1.538 19.231-2.307 10.308-.77 20-.77 68.846-7.269 118.673 38.242 49.827 45.51 49.827 112.448 0 62.556-43.925 106.337Q734.805-185.731 672-185.731q-14.192 0-26.155-2.269-11.962-2.269-24.538-5.807-28.052 26.538-64.293 41.307-36.242 14.769-77.109 14.769ZM480-336ZM367.923-500.77 262.769-732.193 367.923-500.77Zm224.154 0 105.154-231.423L592.077-500.77ZM418.654-248.192l22.884-75.923-61.346-43.923h75.842L480-448.192l24.059 80.154h76.133l-61.705 43.818 23.192 76.028-61.647-46.845-61.378 46.845Z"/></svg>