<svg xmlns="http://www.w3.org/2000/svg" height="24" viewBox="0 -960 960 960" width="24"><path d="M763.077-501.538q-6.923-113.154-86.115-192.347Q597.769-773.077 484.615-780v-40q65 3.077 121.654 28.885 56.654 25.807 99.385 68.538 42.731 42.731 68.539 99.385Q800-566.538 803.077-501.538h-40Zm-160 0q-6.923-46.154-39.615-79.231-32.693-33.077-78.847-39.231v-40q63 6.154 107.27 50.808 44.269 44.654 51.192 107.654h-40ZM757.231-160q-101.154 0-207.385-50.654-106.231-50.653-197.769-142.192-90.77-91.539-141.423-197.385Q160-656.077 160-757.231q0-18 12-30.385Q184-800 202-800h98.923q16.308 0 28.462 10.269t16.461 26.346L365.692-668q2.77 16.769-1 29.308-3.769 12.538-13.307 20.538l-87.77 81.846q24.616 44.693 54.424 83.039 29.807 38.346 63.576 72.654 34.847 34.846 75 64.807 40.154 29.962 88.154 56.577l85.539-87.077q9.769-10.538 21.961-13.884 12.192-3.347 26.962-1.347l84.154 17.231q16.308 4 26.461 16.423Q800-315.462 800-299.385V-202q0 18-12.384 30-12.385 12-30.385 12ZM244.846-573.846l76.769-70.616q3.846-3.077 5-8.461 1.154-5.385-.384-10l-17.77-84.769q-1.538-6.154-5.384-9.231t-10-3.077H211q-4.615 0-7.692 3.077t-3.077 7.692q1.154 41 12.846 85.616 11.692 44.615 31.769 89.769Zm338 333.384q40.539 20.077 86.423 29.693 45.885 9.615 79.962 10.307 4.615 0 7.692-3.076 3.077-3.077 3.077-7.693v-80.307q0-6.154-3.077-10-3.077-3.847-9.231-5.385l-74-15.154q-4.615-1.538-8.077-.384-3.461 1.153-7.307 5l-75.462 76.999Zm-338-333.384Zm338 333.384Z" fill="white"/></svg>